HIERARCHY
ROOT Hips
{
	OFFSET 0.000000 0.000000 0.000000
	CHANNELS 6 Xposition Yposition Zposition Zrotation Yrotation Xrotation 
	JOINT LHipJoint
	{
		OFFSET 0.000000 0.000000 0.000000
		CHANNELS 3 Zrotation Yrotation Xrotation
		JOINT LeftUpLeg
		{
			OFFSET 1.363060 -1.794630 0.839290
			CHANNELS 3 Zrotation Yrotation Xrotation
			JOINT LeftLeg
			{
				OFFSET 2.448110 -6.726130 0.000000
				CHANNELS 3 Zrotation Yrotation Xrotation
				JOINT LeftFoot
				{
					OFFSET 2.562200 -7.039590 0.000000
					CHANNELS 3 Zrotation Yrotation Xrotation
					JOINT LeftToeBase
					{
						OFFSET 0.157640 -0.433110 2.322550
						CHANNELS 3 Zrotation Yrotation Xrotation
						End Site
						{
							OFFSET 0.000000 0.000000 0.000000
						}
					}
				}
			}
		}
	}
	JOINT RHipJoint
	{
		OFFSET 0.000000 0.000000 0.000000
		CHANNELS 3 Zrotation Yrotation Xrotation
		JOINT RightUpLeg
		{
			OFFSET -1.305520 -1.794630 0.839290
			CHANNELS 3 Zrotation Yrotation Xrotation
			JOINT RightLeg
			{
				OFFSET -2.542530 -6.985550 0.000000
				CHANNELS 3 Zrotation Yrotation Xrotation
				JOINT RightFoot
				{
					OFFSET -2.568260 -7.056230 0.000000
					CHANNELS 3 Zrotation Yrotation Xrotation
					JOINT RightToeBase
					{
						OFFSET -0.164730 -0.452590 2.363150
						CHANNELS 3 Zrotation Yrotation Xrotation
						End Site
						{
							OFFSET 0.000000 0.000000 0.000000
						}
					}
				}
			}
		}
	}
}
MOTION
Frames: 19
Frame Time: 0.008333
2.348545 17.122787 2.020189 -5.593838 -75.387053 18.706372 -9.790546 -0.103582 3.247080 -8.657875 -15.287022 -24.496686 -1.040755 0.363763 25.173193 2.495042 12.530844 -11.858696 -0.792200 -0.000001 -26.179400 9.768503 0.145828 -0.792395 3.858383 0.018153 -29.126597 -0.899636 -2.989928 48.906608 -4.676834 -26.299375 6.553881 -7.679800 -0.000000 -66.009000
2.355900 17.119513 2.043654 -6.389037 -74.991829 19.197325 -9.839979 -0.129642 3.207167 -8.498998 -15.240319 -24.287860 -1.028886 0.388771 25.451686 2.455311 12.314711 -11.987225 -0.822800 -0.000000 -26.309200 9.805842 0.210259 -0.859699 4.068067 -0.063989 -30.647670 -1.019256 -3.193220 51.978276 -4.599639 -26.082580 7.219073 -7.784100 -0.000000 -64.972700
2.363788 17.116788 2.067095 -7.216253 -74.580432 19.718218 -9.893468 -0.151208 3.177489 -8.313405 -15.177694 -24.094327 -1.016271 0.412200 25.713424 2.411608 12.077012 -12.101913 -0.847400 0.000000 -26.467899 9.841263 0.275748 -0.942714 4.324773 -0.261847 -32.241656 -1.136014 -3.397884 55.027762 -4.516336 -25.751305 7.558479 -7.717800 0.000001 -63.743800
2.372475 17.114653 2.090729 -8.077119 -74.154388 20.273459 -9.950533 -0.169713 3.160367 -8.096701 -15.118156 -23.919993 -1.000907 0.434250 25.963894 2.367426 11.837244 -12.203998 -0.867200 0.000001 -26.648600 9.873014 0.343289 -1.042473 4.629249 -0.568429 -33.910043 -1.253351 -3.606163 58.043323 -4.429260 -25.329734 7.562436 -7.493601 0.000000 -62.421400
2.382060 17.113283 2.114860 -8.986999 -73.719680 20.881020 -10.011820 -0.187157 3.155711 -7.842360 -15.072393 -23.764435 -0.980783 0.454965 26.208737 2.325939 11.613091 -12.297861 -0.884100 -0.000000 -26.831600 9.898138 0.413060 -1.156701 4.985591 -0.959176 -35.649739 -1.374435 -3.818783 61.009884 -4.341642 -24.853370 7.259725 -7.144100 -0.000000 -61.203800
2.393006 17.112590 2.139584 -9.932240 -73.280477 21.527757 -10.076085 -0.205099 3.163936 -7.553398 -15.059701 -23.628261 -0.954662 0.474961 26.454332 2.290632 11.424851 -12.384970 -0.899500 0.000000 -27.019400 9.915585 0.487494 -1.286499 5.385950 -1.424775 -37.464969 -1.501679 -4.037451 63.927271 -4.251315 -24.322221 6.676742 -6.687100 -0.000000 -60.095200
2.405542 17.112676 2.165079 -10.929395 -72.846989 22.227866 -10.144332 -0.225750 3.181452 -7.227598 -15.081562 -23.503739 -0.921432 0.494419 26.702748 2.263601 11.285402 -12.468705 -0.915300 -0.000000 -27.187900 9.922487 0.566813 -1.428390 5.830151 -1.931640 -39.348845 -1.636998 -4.261745 66.785101 -4.158733 -23.753366 5.873948 -6.158300 0.000000 -59.227000
2.419891 17.113602 2.191435 -11.976892 -72.426981 22.977740 -10.216670 -0.250338 3.204738 -6.868115 -15.138880 -23.382842 -0.880890 0.513702 26.954495 2.246164 11.203596 -12.549952 -0.932500 0.000001 -27.335400 9.917455 0.651886 -1.580380 6.311943 -2.456722 -41.296185 -1.781745 -4.491375 69.579383 -4.061409 -23.141696 4.908530 -5.582900 0.000000 -58.619400
2.436235 17.115449 2.218671 -13.082709 -72.030115 23.780241 -10.293866 -0.280015 3.228447 -6.478235 -15.222527 -23.254579 -0.833455 0.533033 27.206475 2.238199 11.180313 -12.628521 -0.951800 0.000000 -27.452000 9.899102 0.742907 -1.739233 6.825967 -2.972398 -43.298556 -1.936876 -4.725297 72.304818 -3.957098 -22.481300 3.839776 -4.985900 -0.000000 -58.272900
2.454546 17.118172 2.246624 -14.235831 -71.660062 24.623206 -10.375629 -0.314762 3.248237 -6.065711 -15.323815 -23.111129 -0.780430 0.552736 27.455668 2.238403 11.209449 -12.701711 -0.972499 -0.000000 -27.551700 9.867353 0.840854 -1.903255 7.362339 -3.465229 -45.350072 -2.102871 -4.962449 74.957242 -3.842637 -21.758015 2.722002 -4.387300 -0.000000 -58.180400
2.474723 17.121926 2.275324 -15.453763 -71.326246 25.518778 -10.463353 -0.354682 3.257626 -5.633099 -15.416525 -22.940854 -0.723270 0.572443 27.692403 2.244140 11.276944 -12.767502 -0.993900 -0.000000 -27.621800 9.821492 0.944627 -2.066715 7.917794 -3.906190 -47.440448 -2.279930 -5.200648 77.529530 -3.716935 -20.968779 1.600977 -3.806500 0.000000 -58.284700
2.496563 17.126629 2.304433 -16.718945 -71.026185 26.449508 -10.555997 -0.398676 3.253764 -5.189544 -15.486980 -22.741298 -0.664078 0.592121 27.910887 2.252291 11.365511 -12.820485 -1.014000 0.000000 -27.690000 9.762549 1.055335 -2.227592 8.481086 -4.293328 -49.567203 -2.467573 -5.438518 80.016089 -3.578291 -20.104828 0.511711 -3.256900 0.000000 -58.569800
2.519720 17.132409 2.333911 -18.042576 -70.763414 27.424987 -10.654272 -0.445743 3.232574 -4.737185 -15.507312 -22.508250 -0.604692 0.611076 28.100009 2.258958 11.452715 -12.856943 -1.030700 -0.000000 -27.752500 9.690618 1.172021 -2.380094 9.049071 -4.609443 -51.724958 -2.664889 -5.673794 82.409405 -3.427320 -19.169980 -0.527414 -2.747700 -0.000000 -58.941300
2.543726 17.139152 2.363399 -19.401959 -70.530424 28.427297 -10.756306 -0.494138 3.194271 -4.283506 -15.465852 -22.246972 -0.547056 0.628676 28.253123 2.260773 11.518366 -12.871506 -1.041500 -0.000000 -27.839699 9.607056 1.295570 -2.521193 9.611768 -4.860206 -53.917651 -2.870377 -5.905450 84.703073 -3.265123 -18.169633 -1.506445 -2.284400 -0.000000 -59.375000
2.568091 17.146777 2.392598 -20.781806 -70.321172 29.446153 -10.860563 -0.542247 3.139894 -3.832509 -15.350970 -21.964647 -0.492650 0.644100 28.364008 2.254643 11.543338 -12.859903 -1.044300 0.000001 -27.973100 9.512764 1.426194 -2.646773 10.162273 -5.048505 -56.150382 -3.082209 -6.132595 86.890838 -3.094433 -17.118243 -2.427367 -1.868700 0.000000 -59.817700
2.592293 17.155252 2.421297 -22.170235 -70.129323 30.474987 -10.965762 -0.588714 3.071174 -3.385658 -15.153180 -21.669807 -0.442512 0.656488 28.427940 2.238234 11.512086 -12.820545 -1.037500 -0.000001 -28.155500 9.408234 1.563633 -2.752799 10.696340 -5.177162 -58.428884 -3.298306 -6.354628 88.967586 -2.918946 -16.035771 -3.301267 -1.499300 0.000000 -60.205700
2.615826 17.164404 2.449219 -23.542265 -69.945250 31.496088 -11.069611 -0.632323 2.991946 -2.945731 -14.875040 -21.373520 -0.397280 0.665088 28.443998 2.210423 11.415749 -12.752604 -1.020400 -0.000000 -28.394600 9.294178 1.707922 -2.836533 11.207745 -5.256502 -60.761808 -3.516617 -6.571845 90.929919 -2.742864 -14.945374 -4.141210 -1.174000 0.000000 -60.507600
2.638268 17.174061 2.475975 -24.865389 -69.757573 32.483574 -11.169244 -0.672258 2.907307 -2.516055 -14.529377 -21.088014 -0.357079 0.669386 28.415123 2.171324 11.252947 -12.655146 -0.993100 -0.000000 -28.720900 9.171328 1.859143 -2.896590 11.689904 -5.301872 -63.159279 -3.735507 -6.785339 92.777091 -2.570633 -13.872296 -4.957890 -0.890200 0.000000 -60.722300
2.659280 17.184019 2.501329 -26.116227 -69.557072 33.418919 -11.262733 -0.708227 2.821360 -2.097475 -14.130914 -20.820932 -0.321589 0.669218 28.346346 2.121908 11.027447 -12.529902 -0.956300 0.000000 -29.144900 9.039972 2.016471 -2.932483 12.139425 -5.324813 -65.626363 -3.953697 -6.996169 94.510564 -2.406379 -12.840591 -5.761747 -0.644301 0.000000 -60.843400
